<svg width="984" height="1400" viewBox="0 0 984 1400" class="keymap" xmlns="http://www.w3.org/2000/svg">
<style>
svg path { fill: inherit; }
svg.keymap {
    font-family: SFMono-Regular,Consolas,Liberation Mono,Menlo,monospace;
    font-size: 14px;
    font-kerning: normal;
    text-rendering: optimizeLegibility;
    fill: #24292e;
}
rect.key { fill: #f6f8fa; }
rect.key, rect.combo { stroke: #c9cccf; stroke-width: 1; }
rect.combo, rect.combo-separate { fill: #cdf; }
rect.held, rect.combo.held { fill: #fdd; }
text { text-anchor: middle; dominant-baseline: middle; }
text.label { font-weight: bold; text-anchor: start; stroke: white; stroke-width: 4; paint-order: stroke; }
text.footer { text-anchor: end; dominant-baseline: auto; stroke: white; stroke-width: 4; paint-order: stroke; }
text.combo, text.hold, text.shifted { font-size: 11px; }
text.hold { text-anchor: middle; dominant-baseline: auto; }
text.trans { fill: #7b7e81; }
text.layer-activator { text-decoration: underline; }
path.combo { stroke-width: 1; stroke: gray; fill: none; }
</style>

<!-- ==================== Layer 0: Base ==================== -->
<g transform="translate(30, 0)" class="layer-Base">
<text x="0" y="28" class="label" id="Base">Base:</text>
<g transform="translate(0, 56)">
<!-- Row 0 -->
<g transform="translate(28, 56)"><rect rx="6" ry="6" x="-26" y="-26" width="52" height="52" class="key"/><text x="0" y="0" class="key tap">TAB</text></g>
<g transform="translate(84, 49)"><rect rx="6" ry="6" x="-26" y="-26" width="52" height="52" class="key"/><text x="0" y="0" class="key tap">Q</text></g>
<g transform="translate(140, 35)"><rect rx="6" ry="6" x="-26" y="-26" width="52" height="52" class="key"/><text x="0" y="0" class="key tap">W</text></g>
<g transform="translate(196, 28)"><rect rx="6" ry="6" x="-26" y="-26" width="52" height="52" class="key"/><text x="0" y="0" class="key tap">E</text></g>
<g transform="translate(252, 35)"><rect rx="6" ry="6" x="-26" y="-26" width="52" height="52" class="key"/><text x="0" y="0" class="key tap">R</text></g>
<g transform="translate(308, 42)"><rect rx="6" ry="6" x="-26" y="-26" width="52" height="52" class="key"/><text x="0" y="0" class="key tap">T</text></g>
<g transform="translate(616, 42)"><rect rx="6" ry="6" x="-26" y="-26" width="52" height="52" class="key"/><text x="0" y="0" class="key tap">Y</text></g>
<g transform="translate(672, 35)"><rect rx="6" ry="6" x="-26" y="-26" width="52" height="52" class="key"/><text x="0" y="0" class="key tap">U</text></g>
<g transform="translate(728, 28)"><rect rx="6" ry="6" x="-26" y="-26" width="52" height="52" class="key"/><text x="0" y="0" class="key tap">I</text></g>
<g transform="translate(784, 35)"><rect rx="6" ry="6" x="-26" y="-26" width="52" height="52" class="key"/><text x="0" y="0" class="key tap">O</text></g>
<g transform="translate(840, 49)"><rect rx="6" ry="6" x="-26" y="-26" width="52" height="52" class="key"/><text x="0" y="0" class="key tap">P</text></g>
<g transform="translate(896, 56)"><rect rx="6" ry="6" x="-26" y="-26" width="52" height="52" class="key"/><text x="0" y="0" class="key tap">BSPC</text></g>
<!-- Row 1: Home Row Mods (GACS) -->
<g transform="translate(28, 112)"><rect rx="6" ry="6" x="-26" y="-26" width="52" height="52" class="key"/><text x="0" y="0" class="key tap">CTRL</text></g>
<g transform="translate(84, 105)"><rect rx="6" ry="6" x="-26" y="-26" width="52" height="52" class="key"/><text x="0" y="0" class="key tap">A</text><text x="0" y="24" class="key hold">&#x2318;</text></g>
<g transform="translate(140, 91)"><rect rx="6" ry="6" x="-26" y="-26" width="52" height="52" class="key"/><text x="0" y="0" class="key tap">S</text><text x="0" y="24" class="key hold">&#x2325;</text></g>
<g transform="translate(196, 84)"><rect rx="6" ry="6" x="-26" y="-26" width="52" height="52" class="key"/><text x="0" y="0" class="key tap">D</text><text x="0" y="24" class="key hold">&#x2303;</text></g>
<g transform="translate(252, 91)"><rect rx="6" ry="6" x="-26" y="-26" width="52" height="52" class="key"/><text x="0" y="0" class="key tap">F</text><text x="0" y="24" class="key hold">&#x21E7;</text></g>
<g transform="translate(308, 98)"><rect rx="6" ry="6" x="-26" y="-26" width="52" height="52" class="key"/><text x="0" y="0" class="key tap">G</text></g>
<g transform="translate(616, 98)"><rect rx="6" ry="6" x="-26" y="-26" width="52" height="52" class="key"/><text x="0" y="0" class="key tap">H</text></g>
<g transform="translate(672, 91)"><rect rx="6" ry="6" x="-26" y="-26" width="52" height="52" class="key"/><text x="0" y="0" class="key tap">J</text><text x="0" y="24" class="key hold">&#x21E7;</text></g>
<g transform="translate(728, 84)"><rect rx="6" ry="6" x="-26" y="-26" width="52" height="52" class="key"/><text x="0" y="0" class="key tap">K</text><text x="0" y="24" class="key hold">&#x2303;</text></g>
<g transform="translate(784, 91)"><rect rx="6" ry="6" x="-26" y="-26" width="52" height="52" class="key"/><text x="0" y="0" class="key tap">L</text><text x="0" y="24" class="key hold">&#x2325;</text></g>
<g transform="translate(840, 105)"><rect rx="6" ry="6" x="-26" y="-26" width="52" height="52" class="key"/><text x="0" y="0" class="key tap">;</text><text x="0" y="24" class="key hold">&#x2318;</text></g>
<g transform="translate(896, 112)"><rect rx="6" ry="6" x="-26" y="-26" width="52" height="52" class="key"/><text x="0" y="0" class="key tap">'</text></g>
<!-- Row 2 -->
<g transform="translate(28, 168)"><rect rx="6" ry="6" x="-26" y="-26" width="52" height="52" class="key"/><text x="0" y="0" class="key tap">SHIFT</text></g>
<g transform="translate(84, 161)"><rect rx="6" ry="6" x="-26" y="-26" width="52" height="52" class="key"/><text x="0" y="0" class="key tap">Z</text></g>
<g transform="translate(140, 147)"><rect rx="6" ry="6" x="-26" y="-26" width="52" height="52" class="key"/><text x="0" y="0" class="key tap">X</text></g>
<g transform="translate(196, 140)"><rect rx="6" ry="6" x="-26" y="-26" width="52" height="52" class="key"/><text x="0" y="0" class="key tap">C</text></g>
<g transform="translate(252, 147)"><rect rx="6" ry="6" x="-26" y="-26" width="52" height="52" class="key"/><text x="0" y="0" class="key tap">V</text></g>
<g transform="translate(308, 154)"><rect rx="6" ry="6" x="-26" y="-26" width="52" height="52" class="key"/><text x="0" y="0" class="key tap">B</text></g>
<g transform="translate(616, 154)"><rect rx="6" ry="6" x="-26" y="-26" width="52" height="52" class="key"/><text x="0" y="0" class="key tap">N</text></g>
<g transform="translate(672, 147)"><rect rx="6" ry="6" x="-26" y="-26" width="52" height="52" class="key"/><text x="0" y="0" class="key tap">M</text></g>
<g transform="translate(728, 140)"><rect rx="6" ry="6" x="-26" y="-26" width="52" height="52" class="key"/><text x="0" y="0" class="key tap">,</text></g>
<g transform="translate(784, 147)"><rect rx="6" ry="6" x="-26" y="-26" width="52" height="52" class="key"/><text x="0" y="0" class="key tap">.</text></g>
<g transform="translate(840, 161)"><rect rx="6" ry="6" x="-26" y="-26" width="52" height="52" class="key"/><text x="0" y="0" class="key tap">/</text></g>
<g transform="translate(896, 168)"><rect rx="6" ry="6" x="-26" y="-26" width="52" height="52" class="key"/><text x="0" y="0" class="key tap">SHIFT</text></g>
<!-- Thumb cluster -->
<g transform="translate(200, 234)"><rect rx="6" ry="6" x="-26" y="-26" width="52" height="52" class="key"/><text x="0" y="0" class="key tap">&#x2318;</text></g>
<g transform="translate(260, 222)"><rect rx="6" ry="6" x="-26" y="-26" width="52" height="52" class="key"/><text x="0" y="0" class="key tap layer-activator">Lower</text></g>
<g transform="translate(322, 216)"><rect rx="6" ry="6" x="-26" y="-26" width="52" height="52" class="key"/><text x="0" y="0" class="key tap">SPC</text></g>
<g transform="translate(602, 216)"><rect rx="6" ry="6" x="-26" y="-26" width="52" height="52" class="key"/><text x="0" y="0" class="key tap">ENT</text></g>
<g transform="translate(664, 222)"><rect rx="6" ry="6" x="-26" y="-26" width="52" height="52" class="key"/><text x="0" y="0" class="key tap layer-activator">Raise</text></g>
<g transform="translate(724, 234)"><rect rx="6" ry="6" x="-26" y="-26" width="52" height="52" class="key"/><text x="0" y="0" class="key tap">&#x2325;</text></g>
<!-- Combos (in gap between halves) -->
<g class="combo combopos-0">
<rect rx="6" ry="6" x="345" y="50" width="56" height="36" class="combo"/>
<text x="373" y="62" class="combo hold">R+G</text>
<text x="373" y="78" class="combo tap">&#x2318;&#x21E7;[</text>
</g>
<g class="combo combopos-1">
<rect rx="6" ry="6" x="523" y="50" width="56" height="36" class="combo"/>
<text x="551" y="62" class="combo hold">H+U</text>
<text x="551" y="78" class="combo tap">&#x2318;&#x21E7;]</text>
</g>
</g>
</g>

<!-- ==================== Layer 1: Lower ==================== -->
<g transform="translate(30, 340)" class="layer-Lower">
<text x="0" y="28" class="label" id="Lower-Layer">Lower (1):</text>
<g transform="translate(0, 56)">
<!-- Row 0 -->
<g transform="translate(28, 56)"><rect rx="6" ry="6" x="-26" y="-26" width="52" height="52" class="key"/><text x="0" y="0" class="key tap">ESC</text></g>
<g transform="translate(84, 49)"><rect rx="6" ry="6" x="-26" y="-26" width="52" height="52" class="key"/><text x="0" y="0" class="key tap">1</text></g>
<g transform="translate(140, 35)"><rect rx="6" ry="6" x="-26" y="-26" width="52" height="52" class="key"/><text x="0" y="0" class="key tap">2</text></g>
<g transform="translate(196, 28)"><rect rx="6" ry="6" x="-26" y="-26" width="52" height="52" class="key"/><text x="0" y="0" class="key tap">3</text></g>
<g transform="translate(252, 35)"><rect rx="6" ry="6" x="-26" y="-26" width="52" height="52" class="key"/><text x="0" y="0" class="key tap">4</text></g>
<g transform="translate(308, 42)"><rect rx="6" ry="6" x="-26" y="-26" width="52" height="52" class="key"/><text x="0" y="0" class="key tap">5</text></g>
<g transform="translate(616, 42)"><rect rx="6" ry="6" x="-26" y="-26" width="52" height="52" class="key"/><text x="0" y="0" class="key tap">6</text></g>
<g transform="translate(672, 35)"><rect rx="6" ry="6" x="-26" y="-26" width="52" height="52" class="key"/><text x="0" y="0" class="key tap">7</text></g>
<g transform="translate(728, 28)"><rect rx="6" ry="6" x="-26" y="-26" width="52" height="52" class="key"/><text x="0" y="0" class="key tap">8</text></g>
<g transform="translate(784, 35)"><rect rx="6" ry="6" x="-26" y="-26" width="52" height="52" class="key"/><text x="0" y="0" class="key tap">9</text></g>
<g transform="translate(840, 49)"><rect rx="6" ry="6" x="-26" y="-26" width="52" height="52" class="key"/><text x="0" y="0" class="key tap">0</text></g>
<g transform="translate(896, 56)"><rect rx="6" ry="6" x="-26" y="-26" width="52" height="52" class="key"/><text x="0" y="0" class="key tap">DEL</text></g>
<!-- Row 1 -->
<g transform="translate(28, 112)"><rect rx="6" ry="6" x="-26" y="-26" width="52" height="52" class="key"/><text x="0" y="0" class="key tap">`</text></g>
<g transform="translate(84, 105)"><rect rx="6" ry="6" x="-26" y="-26" width="52" height="52" class="key"/><text x="0" y="0" class="key tap trans">&#x25BD;</text></g>
<g transform="translate(140, 91)"><rect rx="6" ry="6" x="-26" y="-26" width="52" height="52" class="key"/><text x="0" y="0" class="key tap trans">&#x25BD;</text></g>
<g transform="translate(196, 84)"><rect rx="6" ry="6" x="-26" y="-26" width="52" height="52" class="key"/><text x="0" y="0" class="key tap trans">&#x25BD;</text></g>
<g transform="translate(252, 91)"><rect rx="6" ry="6" x="-26" y="-26" width="52" height="52" class="key"/><text x="0" y="0" class="key tap trans">&#x25BD;</text></g>
<g transform="translate(308, 98)"><rect rx="6" ry="6" x="-26" y="-26" width="52" height="52" class="key"/><text x="0" y="0" class="key tap trans">&#x25BD;</text></g>
<g transform="translate(616, 98)"><rect rx="6" ry="6" x="-26" y="-26" width="52" height="52" class="key"/><text x="0" y="0" class="key tap trans">&#x25BD;</text></g>
<g transform="translate(672, 91)"><rect rx="6" ry="6" x="-26" y="-26" width="52" height="52" class="key"/><text x="0" y="0" class="key tap">-</text></g>
<g transform="translate(728, 84)"><rect rx="6" ry="6" x="-26" y="-26" width="52" height="52" class="key"/><text x="0" y="0" class="key tap">=</text></g>
<g transform="translate(784, 91)"><rect rx="6" ry="6" x="-26" y="-26" width="52" height="52" class="key"/><text x="0" y="0" class="key tap">[</text></g>
<g transform="translate(840, 105)"><rect rx="6" ry="6" x="-26" y="-26" width="52" height="52" class="key"/><text x="0" y="0" class="key tap">]</text></g>
<g transform="translate(896, 112)"><rect rx="6" ry="6" x="-26" y="-26" width="52" height="52" class="key"/><text x="0" y="0" class="key tap">\</text></g>
<!-- Row 2 -->
<g transform="translate(28, 168)"><rect rx="6" ry="6" x="-26" y="-26" width="52" height="52" class="key"/><text x="0" y="0" class="key tap trans">&#x25BD;</text></g>
<g transform="translate(84, 161)"><rect rx="6" ry="6" x="-26" y="-26" width="52" height="52" class="key"/><text x="0" y="0" class="key tap">F1</text></g>
<g transform="translate(140, 147)"><rect rx="6" ry="6" x="-26" y="-26" width="52" height="52" class="key"/><text x="0" y="0" class="key tap">F2</text></g>
<g transform="translate(196, 140)"><rect rx="6" ry="6" x="-26" y="-26" width="52" height="52" class="key"/><text x="0" y="0" class="key tap">F3</text></g>
<g transform="translate(252, 147)"><rect rx="6" ry="6" x="-26" y="-26" width="52" height="52" class="key"/><text x="0" y="0" class="key tap">F4</text></g>
<g transform="translate(308, 154)"><rect rx="6" ry="6" x="-26" y="-26" width="52" height="52" class="key"/><text x="0" y="0" class="key tap">F5</text></g>
<g transform="translate(616, 154)"><rect rx="6" ry="6" x="-26" y="-26" width="52" height="52" class="key"/><text x="0" y="0" class="key tap">F6</text></g>
<g transform="translate(672, 147)"><rect rx="6" ry="6" x="-26" y="-26" width="52" height="52" class="key"/><text x="0" y="0" class="key tap">F7</text></g>
<g transform="translate(728, 140)"><rect rx="6" ry="6" x="-26" y="-26" width="52" height="52" class="key"/><text x="0" y="0" class="key tap">F8</text></g>
<g transform="translate(784, 147)"><rect rx="6" ry="6" x="-26" y="-26" width="52" height="52" class="key"/><text x="0" y="0" class="key tap">F9</text></g>
<g transform="translate(840, 161)"><rect rx="6" ry="6" x="-26" y="-26" width="52" height="52" class="key"/><text x="0" y="0" class="key tap">F10</text></g>
<g transform="translate(896, 168)"><rect rx="6" ry="6" x="-26" y="-26" width="52" height="52" class="key"/><text x="0" y="0" class="key tap">F11</text></g>
<!-- Thumb cluster -->
<g transform="translate(200, 234)"><rect rx="6" ry="6" x="-26" y="-26" width="52" height="52" class="key"/><text x="0" y="0" class="key tap trans">&#x25BD;</text></g>
<g transform="translate(260, 222)"><rect rx="6" ry="6" x="-26" y="-26" width="52" height="52" class="key held"/><text x="0" y="0" class="key tap">Lower</text></g>
<g transform="translate(322, 216)"><rect rx="6" ry="6" x="-26" y="-26" width="52" height="52" class="key"/><text x="0" y="0" class="key tap trans">&#x25BD;</text></g>
<g transform="translate(602, 216)"><rect rx="6" ry="6" x="-26" y="-26" width="52" height="52" class="key"/><text x="0" y="0" class="key tap trans">&#x25BD;</text></g>
<g transform="translate(664, 222)"><rect rx="6" ry="6" x="-26" y="-26" width="52" height="52" class="key"/><text x="0" y="0" class="key tap layer-activator">Super</text></g>
<g transform="translate(724, 234)"><rect rx="6" ry="6" x="-26" y="-26" width="52" height="52" class="key"/><text x="0" y="0" class="key tap trans">&#x25BD;</text></g>
</g>
</g>

<!-- ==================== Layer 2: Raise ==================== -->
<g transform="translate(30, 680)" class="layer-Raise">
<text x="0" y="28" class="label" id="Raise-Layer">Raise (2):</text>
<g transform="translate(0, 56)">
<!-- Row 0 -->
<g transform="translate(28, 56)"><rect rx="6" ry="6" x="-26" y="-26" width="52" height="52" class="key"/><text x="0" y="0" class="key tap">`</text></g>
<g transform="translate(84, 49)"><rect rx="6" ry="6" x="-26" y="-26" width="52" height="52" class="key"/><text x="0" y="0" class="key tap">1</text></g>
<g transform="translate(140, 35)"><rect rx="6" ry="6" x="-26" y="-26" width="52" height="52" class="key"/><text x="0" y="0" class="key tap">2</text></g>
<g transform="translate(196, 28)"><rect rx="6" ry="6" x="-26" y="-26" width="52" height="52" class="key"/><text x="0" y="0" class="key tap">3</text></g>
<g transform="translate(252, 35)"><rect rx="6" ry="6" x="-26" y="-26" width="52" height="52" class="key"/><text x="0" y="0" class="key tap">4</text></g>
<g transform="translate(308, 42)"><rect rx="6" ry="6" x="-26" y="-26" width="52" height="52" class="key"/><text x="0" y="0" class="key tap">5</text></g>
<g transform="translate(616, 42)"><rect rx="6" ry="6" x="-26" y="-26" width="52" height="52" class="key"/><text x="0" y="0" class="key tap">6</text></g>
<g transform="translate(672, 35)"><rect rx="6" ry="6" x="-26" y="-26" width="52" height="52" class="key"/><text x="0" y="0" class="key tap">7</text></g>
<g transform="translate(728, 28)"><rect rx="6" ry="6" x="-26" y="-26" width="52" height="52" class="key"/><text x="0" y="0" class="key tap">8</text></g>
<g transform="translate(784, 35)"><rect rx="6" ry="6" x="-26" y="-26" width="52" height="52" class="key"/><text x="0" y="0" class="key tap">9</text></g>
<g transform="translate(840, 49)"><rect rx="6" ry="6" x="-26" y="-26" width="52" height="52" class="key"/><text x="0" y="0" class="key tap">0</text></g>
<g transform="translate(896, 56)"><rect rx="6" ry="6" x="-26" y="-26" width="52" height="52" class="key"/><text x="0" y="0" class="key tap trans">&#x25BD;</text></g>
<!-- Row 1: Navigation -->
<g transform="translate(28, 112)"><rect rx="6" ry="6" x="-26" y="-26" width="52" height="52" class="key"/><text x="0" y="0" class="key tap trans">&#x25BD;</text></g>
<g transform="translate(84, 105)"><rect rx="6" ry="6" x="-26" y="-26" width="52" height="52" class="key"/><text x="0" y="0" class="key tap trans">&#x25BD;</text></g>
<g transform="translate(140, 91)"><rect rx="6" ry="6" x="-26" y="-26" width="52" height="52" class="key"/><text x="0" y="0" class="key tap trans">&#x25BD;</text></g>
<g transform="translate(196, 84)"><rect rx="6" ry="6" x="-26" y="-26" width="52" height="52" class="key"/><text x="0" y="0" class="key tap trans">&#x25BD;</text></g>
<g transform="translate(252, 91)"><rect rx="6" ry="6" x="-26" y="-26" width="52" height="52" class="key"/><text x="0" y="0" class="key tap trans">&#x25BD;</text></g>
<g transform="translate(308, 98)"><rect rx="6" ry="6" x="-26" y="-26" width="52" height="52" class="key"/><text x="0" y="0" class="key tap trans">&#x25BD;</text></g>
<g transform="translate(616, 98)"><rect rx="6" ry="6" x="-26" y="-26" width="52" height="52" class="key"/><text x="0" y="0" class="key tap">&#x2190;</text></g>
<g transform="translate(672, 91)"><rect rx="6" ry="6" x="-26" y="-26" width="52" height="52" class="key"/><text x="0" y="0" class="key tap">&#x2193;</text></g>
<g transform="translate(728, 84)"><rect rx="6" ry="6" x="-26" y="-26" width="52" height="52" class="key"/><text x="0" y="0" class="key tap">&#x2191;</text></g>
<g transform="translate(784, 91)"><rect rx="6" ry="6" x="-26" y="-26" width="52" height="52" class="key"/><text x="0" y="0" class="key tap">&#x2192;</text></g>
<g transform="translate(840, 105)"><rect rx="6" ry="6" x="-26" y="-26" width="52" height="52" class="key"/><text x="0" y="0" class="key tap trans">&#x25BD;</text></g>
<g transform="translate(896, 112)"><rect rx="6" ry="6" x="-26" y="-26" width="52" height="52" class="key"/><text x="0" y="0" class="key tap">\</text></g>
<!-- Row 2 -->
<g transform="translate(28, 168)"><rect rx="6" ry="6" x="-26" y="-26" width="52" height="52" class="key"/><text x="0" y="0" class="key tap trans">&#x25BD;</text></g>
<g transform="translate(84, 161)"><rect rx="6" ry="6" x="-26" y="-26" width="52" height="52" class="key"/><text x="0" y="0" class="key tap trans">&#x25BD;</text></g>
<g transform="translate(140, 147)"><rect rx="6" ry="6" x="-26" y="-26" width="52" height="52" class="key"/><text x="0" y="0" class="key tap trans">&#x25BD;</text></g>
<g transform="translate(196, 140)"><rect rx="6" ry="6" x="-26" y="-26" width="52" height="52" class="key"/><text x="0" y="0" class="key tap trans">&#x25BD;</text></g>
<g transform="translate(252, 147)"><rect rx="6" ry="6" x="-26" y="-26" width="52" height="52" class="key"/><text x="0" y="0" class="key tap trans">&#x25BD;</text></g>
<g transform="translate(308, 154)"><rect rx="6" ry="6" x="-26" y="-26" width="52" height="52" class="key"/><text x="0" y="0" class="key tap trans">&#x25BD;</text></g>
<g transform="translate(616, 154)"><rect rx="6" ry="6" x="-26" y="-26" width="52" height="52" class="key"/><text x="0" y="0" class="key tap trans">&#x25BD;</text></g>
<g transform="translate(672, 147)"><rect rx="6" ry="6" x="-26" y="-26" width="52" height="52" class="key"/><text x="0" y="0" class="key tap">-</text></g>
<g transform="translate(728, 140)"><rect rx="6" ry="6" x="-26" y="-26" width="52" height="52" class="key"/><text x="0" y="0" class="key tap">=</text></g>
<g transform="translate(784, 147)"><rect rx="6" ry="6" x="-26" y="-26" width="52" height="52" class="key"/><text x="0" y="0" class="key tap">[</text></g>
<g transform="translate(840, 161)"><rect rx="6" ry="6" x="-26" y="-26" width="52" height="52" class="key"/><text x="0" y="0" class="key tap">]</text></g>
<g transform="translate(896, 168)"><rect rx="6" ry="6" x="-26" y="-26" width="52" height="52" class="key"/><text x="0" y="0" class="key tap trans">&#x25BD;</text></g>
<!-- Thumb cluster -->
<g transform="translate(200, 234)"><rect rx="6" ry="6" x="-26" y="-26" width="52" height="52" class="key"/><text x="0" y="0" class="key tap trans">&#x25BD;</text></g>
<g transform="translate(260, 222)"><rect rx="6" ry="6" x="-26" y="-26" width="52" height="52" class="key"/><text x="0" y="0" class="key tap layer-activator">Super</text></g>
<g transform="translate(322, 216)"><rect rx="6" ry="6" x="-26" y="-26" width="52" height="52" class="key"/><text x="0" y="0" class="key tap trans">&#x25BD;</text></g>
<g transform="translate(602, 216)"><rect rx="6" ry="6" x="-26" y="-26" width="52" height="52" class="key"/><text x="0" y="0" class="key tap trans">&#x25BD;</text></g>
<g transform="translate(664, 222)"><rect rx="6" ry="6" x="-26" y="-26" width="52" height="52" class="key held"/><text x="0" y="0" class="key tap">Raise</text></g>
<g transform="translate(724, 234)"><rect rx="6" ry="6" x="-26" y="-26" width="52" height="52" class="key"/><text x="0" y="0" class="key tap trans">&#x25BD;</text></g>
</g>
</g>

<!-- ==================== Layer 3: Super ==================== -->
<g transform="translate(30, 1020)" class="layer-Super">
<text x="0" y="28" class="label" id="Super-Layer">Super (3):</text>
<g transform="translate(0, 56)">
<!-- Row 0 -->
<g transform="translate(28, 56)"><rect rx="6" ry="6" x="-26" y="-26" width="52" height="52" class="key"/><text x="0" y="0" class="key tap">BOOT</text></g>
<g transform="translate(84, 49)"><rect rx="6" ry="6" x="-26" y="-26" width="52" height="52" class="key"/><text x="0" y="0" class="key tap trans">&#x25BD;</text></g>
<g transform="translate(140, 35)"><rect rx="6" ry="6" x="-26" y="-26" width="52" height="52" class="key"/><text x="0" y="0" class="key tap trans">&#x25BD;</text></g>
<g transform="translate(196, 28)"><rect rx="6" ry="6" x="-26" y="-26" width="52" height="52" class="key"/><text x="0" y="0" class="key tap trans">&#x25BD;</text></g>
<g transform="translate(252, 35)"><rect rx="6" ry="6" x="-26" y="-26" width="52" height="52" class="key"/><text x="0" y="0" class="key tap trans">&#x25BD;</text></g>
<g transform="translate(308, 42)"><rect rx="6" ry="6" x="-26" y="-26" width="52" height="52" class="key"/><text x="0" y="0" class="key tap trans">&#x25BD;</text></g>
<g transform="translate(616, 42)"><rect rx="6" ry="6" x="-26" y="-26" width="52" height="52" class="key"/><text x="0" y="0" class="key tap trans">&#x25BD;</text></g>
<g transform="translate(672, 35)"><rect rx="6" ry="6" x="-26" y="-26" width="52" height="52" class="key"/><text x="0" y="0" class="key tap trans">&#x25BD;</text></g>
<g transform="translate(728, 28)"><rect rx="6" ry="6" x="-26" y="-26" width="52" height="52" class="key"/><text x="0" y="0" class="key tap trans">&#x25BD;</text></g>
<g transform="translate(784, 35)"><rect rx="6" ry="6" x="-26" y="-26" width="52" height="52" class="key"/><text x="0" y="0" class="key tap trans">&#x25BD;</text></g>
<g transform="translate(840, 49)"><rect rx="6" ry="6" x="-26" y="-26" width="52" height="52" class="key"/><text x="0" y="0" class="key tap trans">&#x25BD;</text></g>
<g transform="translate(896, 56)"><rect rx="6" ry="6" x="-26" y="-26" width="52" height="52" class="key"/><text x="0" y="0" class="key tap">BOOT</text></g>
<!-- Row 1 -->
<g transform="translate(28, 112)"><rect rx="6" ry="6" x="-26" y="-26" width="52" height="52" class="key"/><text x="0" y="0" class="key tap trans">&#x25BD;</text></g>
<g transform="translate(84, 105)"><rect rx="6" ry="6" x="-26" y="-26" width="52" height="52" class="key"/><text x="0" y="0" class="key tap trans">&#x25BD;</text></g>
<g transform="translate(140, 91)"><rect rx="6" ry="6" x="-26" y="-26" width="52" height="52" class="key"/><text x="0" y="0" class="key tap trans">&#x25BD;</text></g>
<g transform="translate(196, 84)"><rect rx="6" ry="6" x="-26" y="-26" width="52" height="52" class="key"/><text x="0" y="0" class="key tap trans">&#x25BD;</text></g>
<g transform="translate(252, 91)"><rect rx="6" ry="6" x="-26" y="-26" width="52" height="52" class="key"/><text x="0" y="0" class="key tap trans">&#x25BD;</text></g>
<g transform="translate(308, 98)"><rect rx="6" ry="6" x="-26" y="-26" width="52" height="52" class="key"/><text x="0" y="0" class="key tap trans">&#x25BD;</text></g>
<g transform="translate(616, 98)"><rect rx="6" ry="6" x="-26" y="-26" width="52" height="52" class="key"/><text x="0" y="0" class="key tap trans">&#x25BD;</text></g>
<g transform="translate(672, 91)"><rect rx="6" ry="6" x="-26" y="-26" width="52" height="52" class="key"/><text x="0" y="0" class="key tap trans">&#x25BD;</text></g>
<g transform="translate(728, 84)"><rect rx="6" ry="6" x="-26" y="-26" width="52" height="52" class="key"/><text x="0" y="0" class="key tap trans">&#x25BD;</text></g>
<g transform="translate(784, 91)"><rect rx="6" ry="6" x="-26" y="-26" width="52" height="52" class="key"/><text x="0" y="0" class="key tap trans">&#x25BD;</text></g>
<g transform="translate(840, 105)"><rect rx="6" ry="6" x="-26" y="-26" width="52" height="52" class="key"/><text x="0" y="0" class="key tap trans">&#x25BD;</text></g>
<g transform="translate(896, 112)"><rect rx="6" ry="6" x="-26" y="-26" width="52" height="52" class="key"/><text x="0" y="0" class="key tap trans">&#x25BD;</text></g>
<!-- Row 2 -->
<g transform="translate(28, 168)"><rect rx="6" ry="6" x="-26" y="-26" width="52" height="52" class="key"/><text x="0" y="0" class="key tap trans">&#x25BD;</text></g>
<g transform="translate(84, 161)"><rect rx="6" ry="6" x="-26" y="-26" width="52" height="52" class="key"/><text x="0" y="0" class="key tap trans">&#x25BD;</text></g>
<g transform="translate(140, 147)"><rect rx="6" ry="6" x="-26" y="-26" width="52" height="52" class="key"/><text x="0" y="0" class="key tap trans">&#x25BD;</text></g>
<g transform="translate(196, 140)"><rect rx="6" ry="6" x="-26" y="-26" width="52" height="52" class="key"/><text x="0" y="0" class="key tap trans">&#x25BD;</text></g>
<g transform="translate(252, 147)"><rect rx="6" ry="6" x="-26" y="-26" width="52" height="52" class="key"/><text x="0" y="0" class="key tap trans">&#x25BD;</text></g>
<g transform="translate(308, 154)"><rect rx="6" ry="6" x="-26" y="-26" width="52" height="52" class="key"/><text x="0" y="0" class="key tap trans">&#x25BD;</text></g>
<g transform="translate(616, 154)"><rect rx="6" ry="6" x="-26" y="-26" width="52" height="52" class="key"/><text x="0" y="0" class="key tap trans">&#x25BD;</text></g>
<g transform="translate(672, 147)"><rect rx="6" ry="6" x="-26" y="-26" width="52" height="52" class="key"/><text x="0" y="0" class="key tap trans">&#x25BD;</text></g>
<g transform="translate(728, 140)"><rect rx="6" ry="6" x="-26" y="-26" width="52" height="52" class="key"/><text x="0" y="0" class="key tap trans">&#x25BD;</text></g>
<g transform="translate(784, 147)"><rect rx="6" ry="6" x="-26" y="-26" width="52" height="52" class="key"/><text x="0" y="0" class="key tap trans">&#x25BD;</text></g>
<g transform="translate(840, 161)"><rect rx="6" ry="6" x="-26" y="-26" width="52" height="52" class="key"/><text x="0" y="0" class="key tap trans">&#x25BD;</text></g>
<g transform="translate(896, 168)"><rect rx="6" ry="6" x="-26" y="-26" width="52" height="52" class="key"/><text x="0" y="0" class="key tap trans">&#x25BD;</text></g>
<!-- Thumb cluster -->
<g transform="translate(200, 234)"><rect rx="6" ry="6" x="-26" y="-26" width="52" height="52" class="key"/><text x="0" y="0" class="key tap trans">&#x25BD;</text></g>
<g transform="translate(260, 222)"><rect rx="6" ry="6" x="-26" y="-26" width="52" height="52" class="key"/><text x="0" y="0" class="key tap trans">&#x25BD;</text></g>
<g transform="translate(322, 216)"><rect rx="6" ry="6" x="-26" y="-26" width="52" height="52" class="key"/><text x="0" y="0" class="key tap trans">&#x25BD;</text></g>
<g transform="translate(602, 216)"><rect rx="6" ry="6" x="-26" y="-26" width="52" height="52" class="key"/><text x="0" y="0" class="key tap trans">&#x25BD;</text></g>
<g transform="translate(664, 222)"><rect rx="6" ry="6" x="-26" y="-26" width="52" height="52" class="key"/><text x="0" y="0" class="key tap trans">&#x25BD;</text></g>
<g transform="translate(724, 234)"><rect rx="6" ry="6" x="-26" y="-26" width="52" height="52" class="key"/><text x="0" y="0" class="key tap trans">&#x25BD;</text></g>
</g>
</g>

<!-- Footer -->
<text x="954" y="1385" class="footer">FFKB Lite &#x2014; Vial v2</text>
</svg>
